<svg enable-background="new 0 0 157 38" viewBox="0 0 157 38" xmlns="http://www.w3.org/2000/svg"><g fill="#f58c22"><path d="m68.6 31.3c-6.3 0-10.6-4.3-10.6-10.7s4.4-10.7 10.7-10.7c3.9 0 7.1 1.5 8.5 4.8l-4.6 2.8c-.7-1.9-1.9-2.7-3.8-2.7-2.9 0-4.9 2.1-4.9 5.9s1.9 5.9 4.9 5.9c2.2 0 3.4-.9 4.1-2.7l4.7 2.4c-1.7 3.5-4.9 5-9 5z"/><path d="m93.1 22v8.9h-5.1l-.3-1.3c-1 1-2.3 1.6-4.3 1.6-3.4 0-5.2-1.7-5.2-4.2 0-3 2.7-5.1 7.4-5.1.7 0 1.2 0 1.8.1v-.5c0-1-.9-1.9-2.2-1.9-.9 0-1.7.4-2 1.5l-4.5-1c.8-2.8 3.3-4.4 7.1-4.4 4.6 0 7.3 2.3 7.3 6.3zm-5.7 2.9c-.5-.1-1-.2-1.5-.2-1.5 0-2.3.7-2.3 1.6s.7 1.4 1.8 1.4c1.6.1 2-1.1 2-2.8z"/><path d="m106.1 30.3c-1 .6-2.6.9-4 .9-3.7 0-5.8-1.8-5.8-5.4v-5.5h-2.5v-4.2h2.5v-3.7l5.7-1v4.7h3.7v4.2h-3.7v4.6c0 1.3.6 1.9 1.7 1.9.7 0 1.2-.2 1.6-.4z"/><path d="m121.9 20.3-5.2 1.8c-.3-1.4-.9-2-2-2-1.6 0-2.6 1.1-2.6 3.2 0 2.2 1.1 3.5 2.6 3.5 1.1 0 1.7-.7 2.1-1.9l5.2 1.9c-.7 2.6-3.2 4.5-7.3 4.5-5.2 0-8.3-3-8.3-7.8s3.2-7.8 8.1-7.8c4.6 0 6.8 2.1 7.4 4.6z"/><path d="m138.6 21.4v9.5h-5.7v-8.3c0-1.5-.5-2.2-1.7-2.2-1.7 0-2.3 1.6-2.3 4.3v6.3h-5.7v-21.3h5.7v5.1c0 1.2-.1 2.5-.1 3.7.7-1.6 2.7-2.8 4.9-2.8 3 0 4.9 2.1 4.9 5.7z"/><path d="m144.9 30.9-5.9-14.8h6.4l2.4 7.9.4 1.8.5-1.8 2.2-7.9h5.9l-8.4 21.3h-6z"/></g><path d="m43.7 10.5c0-5.3-1.9-10.5-3.8-10.5-1.8 0-4.2 4.8-8.7 13.4l10.3 4.3c1.1-1.5 2.2-3.4 2.2-7.2z" fill="#fec014"/><path d="m6.8 17.7 10.3-4.3c-4.5-8.6-6.9-13.4-8.7-13.4-2 0-3.8 5.2-3.8 10.5 0 3.8 1.1 5.7 2.2 7.2z" fill="#fec014"/><path d="m43.7 23.7c0-9.7-8.6-15.3-19.5-15.3s-19.6 5.7-19.6 15.3 7.3 13.5 19.5 13.5h.1.1c12.1.1 19.4-3.9 19.4-13.5z" fill="#fec014"/><path d="m36.7 11.6c-.5-.3-.5-.8-.1-1.7 1.8-4 2.9-6.4 3.8-6.4 1 0 2 3.5 2 7 0 3-.7 4.7-1.3 4.7-.2 0-.3-.1-.5-.3-1.2-1.5-2.2-2.3-3.9-3.3z" fill="#f8d841"/><circle cx="35" cy="27" fill="#fff" r="3.8"/><ellipse cx="35" cy="27.2" fill="#231f20" rx=".9" ry="1.9"/><path d="m47.3 23.6c-1.7.5-4 1-6.8 1.2" fill="none" stroke="#f8d841" stroke-linecap="round" stroke-miterlimit="10" stroke-width="1.1593"/><path d="m41 27.7c2.2.6 4.9.4 6.7-.1" fill="none" stroke="#f8d841" stroke-linecap="round" stroke-miterlimit="10" stroke-width="1.1593"/><path d="m40.7 30.2c1.7 1 4.1 1.8 5.5 2" fill="none" stroke="#f8d841" stroke-linecap="round" stroke-miterlimit="10" stroke-width="1.1593"/><path d="m29.4 30.3c-1.2 0-2.7.5-5.2.5s-4-.5-5.2-.5c-.8 0-1.3.4-1.3 1.3s1 2.7 6.6 2.7 6.6-1.8 6.6-2.7c-.2-.8-.7-1.3-1.5-1.3z" fill="#fff"/><path d="m7.7 14.8c-.2.3-.4.3-.5.3-.7 0-1.3-1.7-1.3-4.7 0-3.5 1-7 2-7 .9 0 2.1 2.4 3.8 6.4.4.9.4 1.4-.1 1.7-1.7 1.1-2.6 1.9-3.9 3.3z" fill="#f8d841"/><path d="m24.2 34.4v-3.7" fill="none" stroke="#fec014" stroke-linecap="round" stroke-miterlimit="10" stroke-width="1.1593"/><circle cx="13.3" cy="27" fill="#fff" r="3.8"/><ellipse cx="13.3" cy="27.2" fill="#231f20" rx=".9" ry="1.9"/><path d="m20.5 30.3c0 1.3-.2 2.5-.5 3.8" fill="none" stroke="#fec014" stroke-linecap="round" stroke-miterlimit="10" stroke-width="1.1593"/><path d="m7.8 24.8c-2.8-.2-5.1-.7-6.8-1.2" fill="none" stroke="#f8d841" stroke-linecap="round" stroke-miterlimit="10" stroke-width="1.1593"/><path d="m.6 27.6c1.9.5 4.5.7 6.7.1" fill="none" stroke="#f8d841" stroke-linecap="round" stroke-miterlimit="10" stroke-width="1.1593"/><path d="m2 32.2c1.4-.2 3.8-1 5.5-2" fill="none" stroke="#f8d841" stroke-linecap="round" stroke-miterlimit="10" stroke-width="1.1593"/><path d="m26.1 26.5c-.6 0-1.2.1-1.9.1s-1.3-.1-1.9-.1c-.7 0-1.1.3-1.1.8 0 .9 1.4 1.7 3.1 1.7s3-.7 3-1.7c-.1-.5-.6-.8-1.2-.8z" fill="#f58c22"/><path d="m28.3 34.1c-.3-1.2-.4-2.5-.5-3.8" fill="none" stroke="#fec014" stroke-linecap="round" stroke-miterlimit="10" stroke-width="1.1593"/></svg>