<svg viewBox="0 0 57.4 44.2" xmlns="http://www.w3.org/2000/svg"><g fill="#fdc018"><path d="m51.9 12.4c0-6.2-2.2-12.4-4.6-12.4-2.1 0-5 5.6-10.4 15.9l12.3 5.1c1.3-1.8 2.7-4.1 2.7-8.6z"/><path d="m8.2 21 12.3-5.1c-5.5-10.3-8.3-15.9-10.4-15.9-2.4 0-4.6 6.2-4.6 12.4 0 4.5 1.4 6.8 2.7 8.6z"/><path d="m51.9 28.1c0-11.5-10.2-18.1-23.2-18.1s-23.2 6.7-23.2 18.1 8.7 16 23.1 16.1h.1.1c14.4 0 23.1-4.7 23.1-16.1z"/></g><path d="m43.6 13.7c-.6-.4-.6-.9-.1-2 2.1-4.7 3.5-7.6 4.5-7.6 1.2 0 2.4 4.1 2.4 8.3 0 3.6-.8 5.5-1.6 5.5-.2 0-.4-.1-.6-.4-1.5-1.6-2.6-2.5-4.6-3.8z" fill="#f8d841"/><circle cx="41.5" cy="32" fill="#fff" r="4.5"/><ellipse cx="41.5" cy="32.3" rx="1" ry="2.3"/><path d="m56.2 28c-2 .6-4.8 1.2-8 1.4" fill="none" stroke="#f8d841" stroke-linecap="round" stroke-width="1.5"/><path d="m48.7 32.8c2.6.7 5.8.5 8-.1" fill="none" stroke="#f8d841" stroke-linecap="round" stroke-width="1.5"/><path d="m48.4 35.9c2 1.2 4.9 2.1 6.6 2.3" fill="none" stroke="#f8d841" stroke-linecap="round" stroke-width="1.5"/><path d="m34.9 36c-1.4 0-3.2.6-6.2.6s-4.8-.6-6.2-.6c-1 0-1.6.5-1.6 1.6s1.2 3.2 7.8 3.2 7.8-2.2 7.8-3.2-.6-1.6-1.6-1.6z" fill="#fff"/><path d="m9.2 17.5c-.2.3-.4.4-.6.4-.8 0-1.6-2-1.6-5.5 0-4.2 1.2-8.3 2.4-8.3 1 0 2.5 2.9 4.5 7.6.5 1.1.4 1.7-.1 2-2 1.3-3.1 2.2-4.6 3.8z" fill="#f8d841"/><path d="m28.7 40.8v-4.4" fill="none" stroke="#fdc018" stroke-linecap="round" stroke-width="1.5"/><circle cx="15.9" cy="32" fill="#fff" r="4.5"/><ellipse cx="15.9" cy="32.3" rx="1" ry="2.3"/><g fill="none" stroke-linecap="round" stroke-width="1.5"><path d="m24.4 36c0 1.5-.3 3-.6 4.5" stroke="#fdc018"/><g stroke="#f8d841"><path d="m9.3 29.4c-3.2-.2-6-.9-8-1.4"/><path d="m.8 32.7c2.2.6 5.4.8 8 .1"/><path d="m2.5 38.2c1.6-.2 4.5-1.2 6.5-2.3"/></g></g><path d="m31 31.4c-.7 0-1.5.1-2.3.1s-1.5-.1-2.3-.1-1.3.4-1.3 1c0 1.1 1.7 2 3.6 2 2 0 3.6-.9 3.6-2 0-.6-.5-1-1.3-1z" fill="#f78c23"/><path d="m33.6 40.4c-.3-1.4-.5-2.9-.6-4.4" fill="none" stroke="#fdc018" stroke-linecap="round" stroke-width="1.5"/></svg>