<svg enable-background="new 0 0 14 18" viewBox="0 0 14 18" xmlns="http://www.w3.org/2000/svg" fill="currentColor"><ellipse clip-rule="evenodd" cx="11.7" cy="1.8" fill-rule="evenodd" rx="1.8" ry="1.8"/><path d="m9.6 10.2-5.1-3 2.7-3-1.5-.9-1.7 1.5c-.5.4-1.2.5-1.6 0-.4-.4-.4-1.1.2-1.6l2-1.8c.6-.6 1.1-.6 1.8-.2l4.4 2.5c.8.5.9 1.3.2 2.1l-1.8 2.2 3.4-.2c1 0 1.4.5 1.4 1.3l-.4 5.5c-.1.6-.4 1-1.1 1-.5 0-1.1-.4-1-1.1l.4-4.4z"/><path d="m3.1 10c1.3-1.3 3.5-1.3 4.8 0s1.4 3.5.1 4.8l1.4 1.4c2-2.2 2-5.6-.1-7.7s-5.5-2-7.6 0z"/><path d="m7.4 15.4c-1.4.9-3.2.8-4.4-.4s-1.3-3-.5-4.4l-1.4-1.4c-1.6 2.2-1.5 5.3.5 7.2 2 2 5 2.1 7.2.5z"/></svg>