<svg fill="none" viewBox="0 0 21 26" xmlns="http://www.w3.org/2000/svg"><g clip-rule="evenodd" fill="currentColor" fill-rule="evenodd"><path d="m15.9206.479018c.51-.358541 1.1946-.5623726 1.9278-.4312467.5039.0901577.9045.3086107 1.2302.6087987.4861.44802.8072 1.07805.8243 1.839.0336 1.49137-1.1399 2.67581-2.7393 2.57454-.7627-.04825-1.3133-.38165-1.7503-.90043-.294-.34911-.479-.69485-.5707-1.2556-.176-1.07711.4347-1.982792 1.078-2.435062z"/><path d="m3.08585 12.1851c.98553-.9336 2.16708-1.646 3.71599-1.9658.10337-.0213.22701-.0127.3171-.0507.10398-.0439.27681-.3101.34244-.38045 1.19085-1.27905 2.29356-2.60547 3.44972-3.90628-.6872-.42882-1.40662-.82557-2.11804-1.2302-.83352.69532-1.60848 1.4473-2.44773 2.18143-.38118.33341-1.02185.70199-1.71219.41851-.57659-.23671-1.01457-.81162-.96383-1.5853.04232-.64653.53919-.99315.95117-1.36975.84376-.77146 1.71225-1.56273 2.58721-2.32098.29998-.25983.58009-.56601 1.04004-.67221.05404-.01246.14016.00782.17755-.0634.01941.06172.19784.01388.32977.0254.38961.03396.72342.27512 1.03998.45658 1.57107.90037 3.16797 1.82458 4.75597 2.72676.3082.17513.6248.36205.9386.55806.315.19703.6724.33462.9511.54533.559.42255.8142 1.3659.4946 2.09269-.1972.4487-.5942.79484-.9131 1.16679-.7342.85643-1.5283 1.74132-2.2829 2.61262 1.5851-.0638 3.3743-.1825 4.9082-.3044.2288.033.4929-.0158.7737.038.7518.1444 1.2903.787 1.2048 1.7249-.2065 2.2652-.3736 4.6837-.5581 7.0769-.0505.657-.0803 1.1327-.4185 1.522-.3528.406-1.0539.7001-1.6994.4312-.5343-.2227-.9879-.7112-.9767-1.4332.0055-.3467.0655-.729.0888-1.1034.103-1.6499.2887-3.4992.3932-5.0984-.5979.0009-1.3711.0835-2.0166.1014.5988 1.2309.9731 3.0569.6468 4.8575-.2882 1.5908-1.0441 2.9305-1.9911 3.8681-.6689-.6373-1.3131-1.2995-1.9785-1.9404.5101-.5576.9646-1.3097 1.1668-2.1561.2064-.8634.1882-1.7558-.0634-2.6126-.7044-2.0762-2.3186-3.528-4.94623-3.5764-.63555-.0117-1.31604.1883-1.82633.4184-.54202.2446-.9827.5329-1.40775.8878-.66196-.6359-1.28673-1.309-1.95314-1.9404z"/><path d="m11.2153 21.9508c.5288.4603 1.02.9819 1.522 1.4838.165.1651.3607.3017.482.4947-1.3413 1.0362-3.1907 1.7522-5.44095 1.6107-.82247-.0518-1.55532-.2756-2.21944-.5074-.20349-.071-.39931-.1776-.58339-.2662-.40848-.1969-.81189-.4092-1.15413-.6595-.35099-.2569-.6557-.5557-.9639-.8498-1.14422-1.092-2.074163-2.8746-2.206771-4.8955-.06435-.9809.069741-2.1034.367771-2.9803.30396-.8943.73811-1.6236 1.24294-2.321.50927.4463.97845.9509 1.47122 1.4332.16845.1649.34897.3266.49458.5073.06651.0652-.05734.1819-.10141.2537-.37228.6049-.64774 1.3767-.7102 2.2829-.07298 1.0583.22411 2.0392.65947 2.7647.41049.6842.98034 1.3018 1.69944 1.7503.71345.4449 1.62883.7622 2.62535.7609 1.16369-.0014 2.06512-.381 2.81542-.8625z"/></g></svg>