<svg viewBox="0 0 24 24" xmlns="http://www.w3.org/2000/svg"><path d="m11.0518 1.83137c.3047-.909913 1.5917-.909914 1.8964 0l1.8055 5.39094c.1355.40452.5126.67855.9392.68239l5.685.05119c.9596.00864 1.3573 1.23266.5861 1.80365l-4.5692 3.38296c-.3429.2539-.4869.6973-.3588 1.1042l1.7081 5.4225c.2883.9153-.7529 1.6718-1.5343 1.1148l-4.6293-3.3002c-.3474-.2476-.8136-.2476-1.161 0l-4.62934 3.3002c-.78136.557-1.82257-.1995-1.53427-1.1148l1.70808-5.4225c.12816-.4069-.0159-.8503-.35876-1.1042l-4.56918-3.38296c-.7712-.57099-.3735-1.79501.58604-1.80365l5.68501-.05119c.42658-.00384.80376-.27787.93923-.68239z" fill="currentColor"/></svg>