<svg enable-background="new 0 0 26 26" viewBox="0 0 26 26" xmlns="http://www.w3.org/2000/svg">
    <g stroke="currentColor" stroke-miterlimit="10">
        <g fill="none">
            <circle cx="7.6" cy="18" r="1.5" stroke-width=".75" />
            <path d="m3.6 14.8-1.6-.1c-.4 0-.7-.4-.7-.8l.1-1.3c-.1-.3.2-.6.6-.6l1.6.1" />
            <path d="m22.6 14.8 1.6-.1c.4 0 .7-.4.7-.8l-.1-1.3c0-.4-.4-.7-.7-.7l-1.6.1" />
            <circle cx="18.6" cy="18" r="1.5" stroke-width=".75" />
            <path d="m22.2 5.5h-18.3" />
            <path d="m22.6 14.5h-19" />
            <path
                d="m22.1 3.7c0-1-.9-1.7-1.8-1.7h-14.4c-1 0-1.9.7-1.9 1.7l-.4 11.3v6.3c0 .4.3.7.7.7h17.6c.4 0 .7-.3.7-.7v-6.3z"
                stroke-linecap="round" stroke-width="1.5" />
        </g>
        <path d="m8.5 22v1.5c0 .8-.7 1.5-1.5 1.5s-1.5-.7-1.5-1.5v-1.5" />
        <path d="m20.5 22v1.5c0 .8-.7 1.5-1.5 1.5s-1.5-.7-1.5-1.5v-1.5" />
    </g>
</svg>