<svg enable-background="new 0 0 26 26" viewBox="0 0 26 26" xmlns="http://www.w3.org/2000/svg">
    <g fill="none" stroke="currentColor" stroke-miterlimit="10">
        <path d="m24 24.1c-1.8 0-1.8-.9-3.6-.9s-1.8.9-3.6.9-1.8-.9-3.6-.9-1.8.9-3.6.9-1.8-.9-3.7-.9-1.8.9-3.7.9"
            stroke-width="1.5" />
        <g stroke-linejoin="round">
            <path d="m7.1 21.5.9-3h7.1" stroke-linecap="round" />
            <path d="m22.1 21.5 2-8-2-9h-8-10.1l-1.9 9 2 8" stroke-linecap="round" stroke-width="1.5" />
            <path d="m11.1 18.5h7l1 3" stroke-linecap="round" />
            <path d="m24.1 13.5h-13 4-13" />
            <path d="m22.6 8.5h-11.5 4-11.5" />
            <path d="m13.1 1v3.5" stroke-linecap="round" stroke-width="1.5" />
        </g>
    </g>
</svg>