<svg viewBox="0 0 26 26" xmlns="http://www.w3.org/2000/svg"><g stroke="currentColor" stroke-miterlimit="10"><g fill="none"><circle cx="6.6" cy="17" r="1.5" stroke-width=".75"/><circle cx="19.6" cy="17" r="1.5" stroke-width=".75"/><path d="m23.2 4.5h-20.3"/><path d="m23.6 13.5h-21"/><path d="m23.1 2.7c0-1-.9-1.7-1.8-1.7h-16.4c-1 0-1.9.7-1.9 1.7l-.4 11.3v6.3c0 .4.3.7.7.7h19.6c.4 0 .7-.3.7-.7v-6.3z" stroke-linecap="round" stroke-width="1.5"/></g><path d="m7.5 21v1.5c0 .8-.7 1.5-1.5 1.5s-1.5-.7-1.5-1.5v-1.5" fill="currentColor"/><path d="m21.5 21v1.5c0 .8-.7 1.5-1.5 1.5s-1.5-.7-1.5-1.5v-1.5" fill="currentColor"/><path d="m14.9 16.5h-3.8c-.3 0-.6.3-.6.6v.8c0 .3.3.6.6.6h3.8c.3 0 .6-.3.6-.6v-.8c0-.3-.3-.6-.6-.6z" fill="none" stroke-linecap="round" stroke-linejoin="round" stroke-width=".75"/><path d="m2.5 13.5h-1c-.6 0-1-.4-1-1v-2c0-.6.4-1 1-1h1" fill="none"/><path d="m23.5 13.5h1c.6 0 1-.4 1-1v-2c0-.6-.4-1-1-1h-1" fill="none"/></g></svg>