<svg viewBox="0 0 26 26" xmlns="http://www.w3.org/2000/svg"><g fill="none" stroke="currentColor" stroke-linecap="round" stroke-linejoin="round"><circle cx="16.5" cy="3.5" r=".5" stroke-linejoin="round"/><circle cx="17.5" cy="16" r="1.5" stroke-width=".75"/><g stroke-linejoin="round"><path d="m19.6 25-2.1-2.5" stroke-linecap="round" stroke-width="1.5"/><path d="m7 20.5c-1.1 0-2-.8-2.1-1.9l-.4-4.6v-10c0-1.9 1.6-3.5 3.5-3.5h10c1.9 0 3.5 1.6 3.5 3.5v10l-.4 4.7c-.1 1-1 1.8-2.1 1.8z" stroke-width="1.5"/><circle cx="9.5" cy="3.5" r=".5"/></g><circle cx="8.5" cy="16" r="1.5" stroke-width=".75"/><path d="m4.6 6.5h16.9"/><path d="m5 11.5 8 .5 8-.5"/><path d="m6.5 25 2.1-2.5" stroke-width="1.5"/><path d="m7.8 23.5h10.6" stroke-width="1.5"/></g></svg>