<svg fill="none" height="32" viewBox="0 0 32 32" width="32" xmlns="http://www.w3.org/2000/svg" xmlns:xlink="http://www.w3.org/1999/xlink"><clipPath id="a"><path d="m0 0h32v32h-32z"/></clipPath><clipPath id="b"><path d="m0 4.56h32v23.04h-32z"/></clipPath><g clip-path="url(#a)"><g clip-path="url(#b)"><g fill="#fdc018"><path d="m28.9338 11.0237c0-3.23185-1.2265-6.4637-2.5645-6.4637-1.1707 0-2.7874 2.91909-5.7979 8.2881l6.8572 2.6585c.7247-.9383 1.5052-2.1372 1.5052-4.4829z"/><path d="m4.57143 15.5066 6.85717-2.6585c-3.06623-5.36901-4.62721-8.2881-5.79794-8.2881-1.33798 0-2.56446 3.23185-2.56446 6.4637 0 2.3457.78049 3.5446 1.50523 4.4829z"/><path d="m28.9338 19.2076c0-5.9946-5.6864-9.43493-12.9338-9.43493-7.24739 0-12.9338 3.49253-12.9338 9.43493 0 5.9425 4.85018 8.3403 12.8781 8.3924h.0557.0557c8.0279 0 12.8781-2.4499 12.8781-8.3924z"/></g><path d="m24.3066 11.7014c-.3345-.2085-.3345-.4692-.0557-1.0426 1.1707-2.44992 1.9512-3.9616 2.5087-3.9616.669 0 1.338 2.1372 1.338 4.3265 0 1.8766-.446 2.867-.892 2.867-.1115 0-.223-.0521-.3345-.2085-.8363-.834-1.4495-1.3032-2.5645-1.9808z" fill="#f8d841"/><path d="m23.1359 23.5862c1.3855 0 2.5087-1.0502 2.5087-2.3457s-1.1232-2.3457-2.5087-2.3457-2.5087 1.0502-2.5087 2.3457 1.1232 2.3457 2.5087 2.3457z" fill="#fff"/><path d="m23.1359 22.5958c.3079 0 .5575-.5367.5575-1.1989 0-.6621-.2496-1.1989-.5575-1.1989s-.5575.5368-.5575 1.1989c0 .6622.2496 1.1989.5575 1.1989z" fill="#000"/><path d="m31.331 19.1555c-1.115.3127-2.6759.6255-4.4599.7298" stroke="#f8d841" stroke-linecap="round" stroke-width=".83352"/><path d="m27.1498 21.6576c1.4495.3649 3.2335.2606 4.46-.0522" stroke="#f8d841" stroke-linecap="round" stroke-width=".83352"/><path d="m26.9826 23.2735c1.115.6255 2.7317 1.0947 3.6794 1.1989" stroke="#f8d841" stroke-linecap="round" stroke-width=".83352"/><path d="m19.4565 23.3256c-.7805 0-1.784.3128-3.4565.3128s-2.676-.3128-3.4564-.3128c-.5575 0-.892.2607-.892.834 0 .5734.669 1.6681 4.3484 1.6681s4.3484-1.1468 4.3484-1.6681c0-.5212-.3345-.834-.8919-.834z" fill="#fff"/><path d="m5.12892 13.6822c-.1115.1564-.223.2085-.33449.2085-.446 0-.89199-1.0425-.89199-2.867 0-2.1893.66899-4.3265 1.33798-4.3265.55749 0 1.39373 1.51168 2.50871 3.9616.27874.5734.223.8862-.05575 1.0426-1.11498.6776-1.72822 1.1468-2.56446 1.9808z" fill="#f8d841"/><path d="m16 25.8277v-2.2936" stroke="#fdc018" stroke-linecap="round" stroke-width=".83352"/><path d="m8.86411 23.5862c1.38549 0 2.50869-1.0502 2.50869-2.3457s-1.1232-2.3457-2.50869-2.3457c-1.38552 0-2.50871 1.0502-2.50871 2.3457s1.12319 2.3457 2.50871 2.3457z" fill="#fff"/><path d="m8.86411 22.5958c.3079 0 .55749-.5367.55749-1.1989 0-.6621-.24959-1.1989-.55749-1.1989-.30789 0-.55749.5368-.55749 1.1989 0 .6622.2496 1.1989.55749 1.1989z" fill="#000"/><g stroke-linecap="round" stroke-width=".83352"><path d="m13.6028 23.3256c0 .7819-.1673 1.5638-.3345 2.3457" stroke="#fdc018"/><g stroke="#f8d841"><path d="m5.18467 19.8853c-1.78397-.1043-3.34495-.4692-4.459931-.7298"/><path d="m.445993 21.6054c1.226477.3128 3.010457.4171 4.459927.0522"/><path d="m1.39373 24.4724c.89198-.1042 2.50871-.6255 3.62369-1.1989"/></g></g><path d="m17.2822 20.9278c-.3902 0-.8362.0521-1.2822.0521s-.8362-.0521-1.2822-.0521-.7248.2085-.7248.5213c0 .5734.9478 1.0425 2.007 1.0425 1.115 0 2.007-.4691 2.007-1.0425 0-.3128-.2788-.5213-.7248-.5213z" fill="#f78c23"/><path d="m18.7317 25.6192c-.1672-.7298-.2787-1.5117-.3345-2.2936" stroke="#fdc018" stroke-linecap="round" stroke-width=".83352"/></g></g></svg>