<svg enable-background="new 0 0 32 32" viewBox="0 0 32 32" xmlns="http://www.w3.org/2000/svg" xmlns:xlink="http://www.w3.org/1999/xlink"><clipPath id="a"><path d="m0 0h32v32h-32z"/></clipPath><clipPath id="b"><path d="m0 4.6h32v23h-32z"/></clipPath><g clip-path="url(#a)"><g clip-path="url(#b)"><path d="m28.9 11c0-3.2-1.2-6.5-2.6-6.5-1.2 0-2.8 2.9-5.8 8.3l6.9 2.7c.8-.9 1.5-2.1 1.5-4.5z" fill="#fdc018"/><path d="m4.6 15.5 6.9-2.7c-3.1-5.3-4.7-8.2-5.9-8.2-1.3 0-2.6 3.2-2.6 6.5.1 2.3.8 3.5 1.6 4.4z" fill="#fdc018"/><path d="m28.9 19.2c0-6-5.7-9.4-12.9-9.4s-12.9 3.5-12.9 9.4 4.9 8.3 12.9 8.4h.1c8 0 12.8-2.4 12.8-8.4z" fill="#fdc018"/><path d="m24.3 11.7c-.3-.2-.3-.5-.1-1 1.2-2.4 2-4 2.5-4 .7 0 1.3 2.1 1.3 4.3 0 1.9-.4 2.9-.9 2.9-.1 0-.2-.1-.3-.2-.8-.9-1.4-1.3-2.5-2z" fill="#f8d841"/><path d="m31.3 19.2c-1.1.3-2.7.6-4.5.7" fill="none" stroke="#f8d841" stroke-linecap="round" stroke-width=".8335"/><path d="m27.1 21.7c1.4.4 3.2.3 4.5-.1" fill="none" stroke="#f8d841" stroke-linecap="round" stroke-width=".8335"/><path d="m27 23.3c1.1.6 2.7 1.1 3.7 1.2" fill="none" stroke="#f8d841" stroke-linecap="round" stroke-width=".8335"/><path d="m19.5 23.3c-.8 0-1.8.3-3.5.3s-2.7-.3-3.5-.3c-.6 0-.9.3-.9.8 0 .6.7 1.7 4.3 1.7s4.3-1.1 4.3-1.7c.1-.5-.2-.8-.7-.8z" fill="#fff"/><path d="m5.1 13.7c-.1.2-.2.2-.3.2-.4 0-.9-1-.9-2.9 0-2.2.7-4.3 1.3-4.3s1.4 1.5 2.5 4c.3.6.2.9-.1 1-1 .7-1.6 1.1-2.5 2z" fill="#f8d841"/><g fill="none" stroke-linecap="round" stroke-width=".8335"><path d="m16 25.8v-2.3" stroke="#fdc018"/><path d="m13.6 23.3c0 .8-.2 1.6-.3 2.3" stroke="#fdc018"/><path d="m5.2 19.9c-1.8-.1-3.3-.5-4.5-.7" stroke="#f8d841"/><path d="m.4 21.6c1.2.3 3 .4 4.5.1" stroke="#f8d841"/><path d="m1.4 24.5c.9-.1 2.5-.6 3.6-1.2" stroke="#f8d841"/></g><path d="m17.3 20.9c-.4 0-.8.1-1.3.1s-.8-.1-1.3-.1-.7.2-.7.5c0 .6.9 1 2 1s2-.5 2-1c0-.3-.3-.5-.7-.5z" fill="#f78c23"/><path d="m18.7 25.6c-.2-.7-.3-1.5-.3-2.3" fill="none" stroke="#fdc018" stroke-linecap="round" stroke-width=".8335"/></g></g><ellipse cx="8.9" cy="21.2" fill="#fff" rx="2.5" ry="2.3"/><ellipse cx="8.9" cy="21.4" rx=".6" ry="1.2"/><ellipse cx="23.1" cy="21.2" fill="#fff" rx="2.5" ry="2.3"/><ellipse cx="23.1" cy="21.4" rx=".6" ry="1.2"/></svg>